<svg width="18" height="11" viewBox="0 0 18 11" fill="none" xmlns="http://www.w3.org/2000/svg">
<path d="M17.0544 0.472408C16.9161 0.322657 16.7519 0.20385 16.5711 0.122788C16.3903 0.0417255 16.1965 -5.96639e-08 16.0007 -6.86684e-08C15.805 -7.76729e-08 15.6112 0.0417255 15.4304 0.122787C15.2496 0.20385 15.0854 0.322657 14.9471 0.472408L9.14842 6.74007L3.34972 0.472407C3.07028 0.170368 2.69128 0.000683321 2.29609 0.000683303C1.90091 0.000683285 1.5219 0.170368 1.24246 0.472407C0.963022 0.774447 0.806036 1.1841 0.806036 1.61125C0.806036 2.0384 0.963022 2.44805 1.24246 2.75009L8.10226 10.1647C8.24053 10.3144 8.40476 10.4332 8.58555 10.5143C8.76635 10.5954 8.96016 10.6371 9.15589 10.6371C9.35163 10.6371 9.54544 10.5954 9.72623 10.5143C9.90703 10.4332 10.0713 10.3144 10.2095 10.1647L17.0693 2.75009C17.6372 2.13625 17.6372 1.10241 17.0544 0.472408Z" fill="#F90729"/>
</svg>
