<svg width="40" height="38" viewBox="0 0 40 38" fill="none" xmlns="http://www.w3.org/2000/svg">
<path d="M22.394 34.4419L24 19.9999L36 19.9999C37.0609 19.9999 38.0783 19.5785 38.8284 18.8284C39.5786 18.0782 40 17.0608 40 15.9999C40 14.9391 39.5786 13.9217 38.8284 13.1715C38.0783 12.4214 37.0609 11.9999 36 11.9999L12 11.9999L14.424 5.93794C14.6264 5.43181 14.7231 4.88966 14.7084 4.34477C14.6937 3.79988 14.5677 3.26375 14.3383 2.7693C14.1088 2.27485 13.7808 1.8325 13.3742 1.46943C12.9676 1.10635 12.4912 0.830207 11.974 0.657941L11.294 0.431941C10.9124 0.304478 10.5013 0.295284 10.1144 0.405565C9.72753 0.515845 9.383 0.740453 9.126 1.04994L0.462001 11.4439C0.164001 11.8019 -5.21339e-07 12.2559 -5.41796e-07 12.7239L-1.4718e-06 33.9999C-1.51817e-06 35.0608 0.421427 36.0782 1.17157 36.8284C1.92172 37.5785 2.93913 37.9999 4 37.9999L18.42 37.9999C19.4041 37.9996 20.3535 37.6365 21.0866 36.98C21.8198 36.3236 22.2853 35.42 22.394 34.4419Z" fill="#F90729"/>
</svg>
