<svg width="19" height="19" viewBox="0 0 19 19" fill="none" xmlns="http://www.w3.org/2000/svg">
<path d="M13.4995 12H12.7095L12.4295 11.73C13.0544 11.004 13.5112 10.1488 13.767 9.22562C14.0229 8.30246 14.0715 7.33416 13.9095 6.39C13.4395 3.61 11.1195 1.39 8.31949 1.05C7.3351 0.925467 6.33527 1.02777 5.39651 1.34909C4.45775 1.67041 3.60493 2.20222 2.90332 2.90383C2.20171 3.60545 1.66989 4.45826 1.34858 5.39703C1.02726 6.33579 0.924952 7.33562 1.04949 8.32C1.38949 11.12 3.60949 13.44 6.38949 13.91C7.33364 14.0721 8.30194 14.0234 9.2251 13.7676C10.1483 13.5117 11.0035 13.055 11.7295 12.43L11.9995 12.71V13.5L16.2495 17.75C16.6595 18.16 17.3295 18.16 17.7395 17.75C18.1495 17.34 18.1495 16.67 17.7395 16.26L13.4995 12ZM7.49949 12C5.00949 12 2.99949 9.99 2.99949 7.5C2.99949 5.01 5.00949 3 7.49949 3C9.98949 3 11.9995 5.01 11.9995 7.5C11.9995 9.99 9.98949 12 7.49949 12Z" fill="#989898"/>
</svg>
