<svg width="14" height="14" viewBox="0 0 14 14" fill="none" xmlns="http://www.w3.org/2000/svg">
<path d="M6.99398 0.333328C3.31398 0.333328 0.333984 3.31999 0.333984 7C0.333984 10.68 3.31398 13.6667 6.99398 13.6667C10.6807 13.6667 13.6673 10.68 13.6673 7C13.6673 3.31999 10.6807 0.333328 6.99398 0.333328ZM7.00065 12.3333C4.05398 12.3333 1.66732 9.94666 1.66732 7C1.66732 4.05333 4.05398 1.66666 7.00065 1.66666C9.94732 1.66666 12.334 4.05333 12.334 7C12.334 9.94666 9.94732 12.3333 7.00065 12.3333ZM6.85398 3.66666H6.81398C6.54732 3.66666 6.33398 3.87999 6.33398 4.14666V7.29333C6.33398 7.52666 6.45398 7.74666 6.66065 7.86666L9.42732 9.52666C9.65399 9.66 9.94732 9.59333 10.0807 9.36666C10.1141 9.31268 10.1364 9.25251 10.1461 9.18975C10.1559 9.12698 10.1529 9.06289 10.1373 9.00131C10.1218 8.93972 10.094 8.8819 10.0556 8.83128C10.0172 8.78066 9.96908 8.73828 9.91399 8.70666L7.33398 7.17333V4.14666C7.33398 3.87999 7.12065 3.66666 6.85398 3.66666Z" fill="#F90729"/>
</svg>
