<svg width="26" height="18" viewBox="0 0 26 18" fill="none" xmlns="http://www.w3.org/2000/svg">
<path d="M24.5199 7.2H1.4799C0.486302 7.2 0.399902 8.0046 0.399902 9C0.399902 9.9954 0.486302 10.8 1.4799 10.8H24.5199C25.5135 10.8 25.5999 9.9954 25.5999 9C25.5999 8.0046 25.5135 7.2 24.5199 7.2ZM24.5199 14.4H1.4799C0.486302 14.4 0.399902 15.2046 0.399902 16.2C0.399902 17.1954 0.486302 18 1.4799 18H24.5199C25.5135 18 25.5999 17.1954 25.5999 16.2C25.5999 15.2046 25.5135 14.4 24.5199 14.4ZM1.4799 3.6H24.5199C25.5135 3.6 25.5999 2.7954 25.5999 1.8C25.5999 0.8046 25.5135 0 24.5199 0H1.4799C0.486302 0 0.399902 0.8046 0.399902 1.8C0.399902 2.7954 0.486302 3.6 1.4799 3.6Z" fill="#F90729"/>
</svg>
