<svg width="26" height="16" viewBox="0 0 26 16" fill="none" xmlns="http://www.w3.org/2000/svg">
<path d="M23.0488 6.86262C23.0406 6.12434 23.0379 5.38059 23.0352 4.63958H20.8258C20.8176 5.37786 20.8121 6.11887 20.8066 6.86262C20.0629 6.86536 19.3246 6.87083 18.5863 6.87903V9.09114C19.3246 9.09934 20.0684 9.10481 20.8066 9.11301C20.8148 9.8513 20.8148 10.5923 20.8203 11.3306H23.0324C23.0352 10.5923 23.0406 9.8513 23.0461 9.10755C23.7898 9.09934 24.5281 9.09661 25.2664 9.0884V6.8763C24.5309 6.87083 23.7871 6.87083 23.0488 6.86262ZM8.55664 6.87356C8.55391 7.75676 8.55665 8.6427 8.55938 9.5259C10.0414 9.57512 11.5262 9.55325 13.0082 9.57512C12.3547 12.8646 7.88399 13.931 5.51875 11.7818C3.08516 9.89778 3.20001 5.76614 5.7293 4.01614C7.49844 2.6052 10.0113 2.95247 11.7805 4.17473C12.475 3.53216 13.1258 2.84309 13.752 2.13216C12.2809 0.959108 10.4762 0.12239 8.55664 0.20989C4.54805 0.0759057 0.864849 3.58684 0.799224 7.59817C0.542193 10.8767 2.69688 14.0896 5.7375 15.249C8.76719 16.4165 12.6527 15.6208 14.5887 12.8974C15.8656 11.1775 16.1418 8.96262 15.9914 6.88176C13.5113 6.86262 11.034 6.86536 8.55664 6.87356Z" fill="#828282"/>
</svg>
