<svg width="24" height="23" viewBox="0 0 24 23" fill="none" xmlns="http://www.w3.org/2000/svg">
<path d="M22.6087 17.925L17.5275 13.305C17.2873 13.0867 16.9717 12.9703 16.6472 12.9803C16.3228 12.9903 16.015 13.126 15.7887 13.3587L12.7975 16.435C12.0775 16.2975 10.63 15.8462 9.13999 14.36C7.64999 12.8687 7.19874 11.4175 7.06499 10.7025L10.1387 7.70999C10.3718 7.4839 10.5077 7.17602 10.5177 6.8515C10.5277 6.52698 10.4111 6.21129 10.1925 5.97124L5.57374 0.891244C5.35504 0.650439 5.05109 0.504374 4.72643 0.484068C4.40177 0.463762 4.08198 0.570816 3.83499 0.782494L1.12249 3.10874C0.906375 3.32564 0.777386 3.61431 0.759986 3.91999C0.741236 4.23249 0.383736 11.635 6.12374 17.3775C11.1312 22.3837 17.4037 22.75 19.1312 22.75C19.3837 22.75 19.5387 22.7425 19.58 22.74C19.8856 22.7229 20.1741 22.5933 20.39 22.3762L22.715 19.6625C22.9275 19.4163 23.0353 19.0968 23.0155 18.7721C22.9956 18.4475 22.8497 18.1435 22.6087 17.925Z" fill="white"/>
</svg>
