<svg width="27" height="24" viewBox="0 0 27 24" fill="none" xmlns="http://www.w3.org/2000/svg">
<path d="M17.3217 12L25.2897 4.66379C26.4263 3.61729 26.4263 1.92061 25.2897 0.874108C24.153 -0.172392 22.3104 -0.172392 21.1737 0.874108L13.2057 8.21033L5.23767 0.874108C4.10105 -0.172392 2.25826 -0.172392 1.12163 0.874108C-0.0149907 1.92061 -0.0149907 3.61729 1.12163 4.66379L9.08963 12L1.12163 19.3362C-0.0149907 20.3827 -0.0149907 22.0794 1.12163 23.1259C1.68994 23.6491 2.43478 23.9108 3.17962 23.9108C3.92446 23.9108 4.66936 23.6492 5.23761 23.1259L13.2057 15.7897L21.1737 23.1259C21.742 23.6491 22.4868 23.9108 23.2317 23.9108C23.9765 23.9108 24.7213 23.6492 25.2897 23.1259C26.4263 22.0794 26.4263 20.3827 25.2897 19.3362L17.3217 12Z" fill="white"/>
</svg>
