<svg width="41" height="41" viewBox="0 0 41 41" fill="none" xmlns="http://www.w3.org/2000/svg">
<path d="M20.544 0.640625C9.3307 0.640625 0.640625 8.83582 0.640625 19.905C0.640625 25.6947 3.01975 30.698 6.89232 34.1541C7.56098 34.7555 7.42324 35.1038 7.53695 38.8171C7.54591 39.0772 7.61836 39.3311 7.748 39.5568C7.87764 39.7824 8.06052 39.973 8.28069 40.1117C8.50087 40.2505 8.75165 40.3332 9.01116 40.3528C9.27067 40.3724 9.53103 40.3282 9.76953 40.224C14.0065 38.3582 14.0609 38.2109 14.7792 38.4063C27.0544 41.7848 40.3594 33.9291 40.3594 19.905C40.3594 8.83582 31.7582 0.640625 20.544 0.640625ZM32.4949 15.4655L26.6492 24.7201C26.4285 25.0681 26.1382 25.3668 25.7966 25.5974C25.4551 25.828 25.0696 25.9855 24.6643 26.0602C24.259 26.1348 23.8427 26.125 23.4414 26.0312C23.0401 25.9374 22.6624 25.7618 22.3322 25.5153L17.6812 22.0343C17.4733 21.8784 17.2204 21.7941 16.9605 21.7941C16.7006 21.7941 16.4478 21.8784 16.2398 22.0343L9.96412 26.7941C9.1265 27.4292 8.02943 26.4258 8.59398 25.5393L14.4397 16.2847C14.6604 15.9366 14.9506 15.6378 15.2921 15.4072C15.6337 15.1765 16.0192 15.0189 16.4245 14.9443C16.8299 14.8696 17.2462 14.8795 17.6476 14.9733C18.0489 15.0671 18.4265 15.2429 18.7567 15.4895L23.406 18.9697C23.614 19.1256 23.8668 19.2099 24.1267 19.2099C24.3866 19.2099 24.6395 19.1256 24.8474 18.9697L31.1264 14.2147C31.9624 13.5756 33.0595 14.5782 32.4949 15.4655Z" fill="#F90729"/>
</svg>
