<svg width="22" height="22" viewBox="0 0 22 22" fill="none" xmlns="http://www.w3.org/2000/svg">
<path d="M10.9999 7.35526C8.99291 7.35526 7.35502 8.99315 7.35502 11.0002C7.35502 13.0072 8.99291 14.6451 10.9999 14.6451C13.007 14.6451 14.6449 13.0072 14.6449 11.0002C14.6449 8.99315 13.007 7.35526 10.9999 7.35526ZM21.932 11.0002C21.932 9.4908 21.9456 7.9951 21.8609 6.48846C21.7761 4.73846 21.3769 3.18533 20.0972 1.90565C18.8148 0.623225 17.2644 0.226741 15.5144 0.141975C14.005 0.0572098 12.5093 0.0708817 11.0027 0.0708817C9.4933 0.0708817 7.9976 0.0572098 6.49096 0.141975C4.74096 0.226741 3.18784 0.62596 1.90815 1.90565C0.625728 3.18807 0.229243 4.73846 0.144478 6.48846C0.0597122 7.99783 0.0733841 9.49354 0.0733841 11.0002C0.0733841 12.5068 0.0597122 14.0053 0.144478 15.5119C0.229243 17.2619 0.628462 18.815 1.90815 20.0947C3.19057 21.3771 4.74096 21.7736 6.49096 21.8584C8.00034 21.9431 9.49604 21.9295 11.0027 21.9295C12.5121 21.9295 14.0078 21.9431 15.5144 21.8584C17.2644 21.7736 18.8175 21.3744 20.0972 20.0947C21.3796 18.8123 21.7761 17.2619 21.8609 15.5119C21.9484 14.0053 21.932 12.5096 21.932 11.0002ZM10.9999 16.6084C7.89643 16.6084 5.39174 14.1037 5.39174 11.0002C5.39174 7.89666 7.89643 5.39197 10.9999 5.39197C14.1035 5.39197 16.6081 7.89666 16.6081 11.0002C16.6081 14.1037 14.1035 16.6084 10.9999 16.6084ZM16.8378 6.47205C16.1132 6.47205 15.5281 5.8869 15.5281 5.16229C15.5281 4.43768 16.1132 3.85252 16.8378 3.85252C17.5624 3.85252 18.1476 4.43768 18.1476 5.16229C18.1478 5.33435 18.1141 5.50476 18.0483 5.66377C17.9826 5.82277 17.8861 5.96725 17.7645 6.08891C17.6428 6.21058 17.4983 6.30705 17.3393 6.37279C17.1803 6.43854 17.0099 6.47227 16.8378 6.47205Z" fill="#F90729"/>
</svg>
