<svg width="24" height="18" viewBox="0 0 24 18" fill="none" xmlns="http://www.w3.org/2000/svg">
<path d="M23.1918 3.40343C23.0589 2.9104 22.7992 2.46077 22.4386 2.09929C22.0779 1.73781 21.6289 1.4771 21.1361 1.34309C19.3091 0.841427 12 0.833261 12 0.833261C12 0.833261 4.69196 0.825094 2.86379 1.30459C2.37137 1.44476 1.92325 1.70917 1.56245 2.07242C1.20165 2.43567 0.94029 2.88557 0.803457 3.37893C0.321624 5.20593 0.316957 8.99526 0.316957 8.99526C0.316957 8.99526 0.312291 12.8033 0.790624 14.6116C1.05896 15.6114 1.84646 16.4013 2.84746 16.6708C4.69312 17.1724 11.9825 17.1806 11.9825 17.1806C11.9825 17.1806 19.2916 17.1888 21.1186 16.7104C21.6115 16.5767 22.061 16.3165 22.4226 15.9558C22.7841 15.5951 23.0452 15.1462 23.1801 14.6536C23.6631 12.8278 23.6666 9.0396 23.6666 9.0396C23.6666 9.0396 23.69 5.23043 23.1918 3.40343ZM9.66196 12.5058L9.66779 5.50576L15.7426 9.01159L9.66196 12.5058Z" fill="#828282"/>
</svg>
